<svg xmlns="http://www.w3.org/2000/svg" viewBox="0 0 16 20" fill-rule="evenodd" clip-rule="evenodd" stroke-linejoin="round" stroke-miterlimit="1.414" x="0px" y="0px"><path d="M14 2.707L8.354 8.353a.5.5 0 0 1-.707-.707L13.293 2H9.5a.5.5 0 0 1 0-1h5a.5.5 0 0 1 .5.5v5a.5.5 0 0 1-1 0V2.707zM5 3H2.499C1.671 3 1 3.669 1 4.496v9.009c0 .825.679 1.496 1.502 1.496h8.995a1.5 1.5 0 0 0 1.502-1.502v-2.498a.5.5 0 0 0-1 0v2.498a.5.5 0 0 1-.502.502H2.502A.504.504 0 0 1 2 13.505V4.496C2 4.222 2.223 4 2.499 4H5a.5.5 0 0 0 0-1z" fill-rule="nonzero"/><text x="0" y="31" fill="#000000" font-size="5px" font-weight="bold" font-family="'Helvetica Neue', Helvetica, Arial-Unicode, Arial, Sans-serif">Created by Asif Shirazi</text><text x="0" y="36" fill="#000000" font-size="5px" font-weight="bold" font-family="'Helvetica Neue', Helvetica, Arial-Unicode, Arial, Sans-serif">from the Noun Project</text></svg>