<svg xmlns="http://www.w3.org/2000/svg" viewBox="0 0 100 100">
  <path d="M29.41 75a9.58 9.58 0 01-4.27-4.13 14 14 0 01-1.46-6.64v-2.55h6.77V64A5.87 5.87 0 0032 68.33a5.89 5.89 0 004.33 1.51 5.59 5.59 0 004.2-1.5A5.92 5.92 0 0042 64v-4.53a5.49 5.49 0 00-.92-3.2 7.6 7.6 0 00-2.32-2.16 40.73 40.73 0 00-3.85-1.94l-.14-.05h-.14l-.5-.22a37 37 0 01-5.36-2.92 11.86 11.86 0 01-3.54-4 12.62 12.62 0 01-1.46-6.41v-3A13.67 13.67 0 0125.16 29a9.49 9.49 0 014.25-4 15.31 15.31 0 016.84-1.39A14.34 14.34 0 0142.9 25a9.42 9.42 0 014.1 4.11 14.25 14.25 0 011.4 6.61v2.7h-6.73V36a6.16 6.16 0 00-1.39-4.34 5.23 5.23 0 00-4-1.5A6 6 0 0032 31.59a5.39 5.39 0 00-1.48 4.06v3.24a5.62 5.62 0 00.93 3.29 7.44 7.44 0 002.31 2.16 39.15 39.15 0 003.82 1.88l.46.22.46.21.38.16a3.76 3.76 0 00.37.16 34.05 34.05 0 015 2.66 10.29 10.29 0 013.2 3.65 12.83 12.83 0 011.32 6.23v4.74a14.07 14.07 0 01-1.44 6.64A9.52 9.52 0 0143.06 75a14.86 14.86 0 01-6.77 1.41A15.26 15.26 0 0129.41 75zM59.62 74.86a10.13 10.13 0 01-4.13-4.54 16.38 16.38 0 01-1.43-7.14V36.86a16.5 16.5 0 011.43-7.18 10.2 10.2 0 014.11-4.54 12.64 12.64 0 016.5-1.57 12.77 12.77 0 016.52 1.57 10.09 10.09 0 014.11 4.54 16.53 16.53 0 011.41 7.14V39H71.3v-2.18a9.48 9.48 0 00-.61-3.6 4.83 4.83 0 00-1.78-2.28 5.43 5.43 0 00-5.61 0 5.09 5.09 0 00-1.78 2.28 9.58 9.58 0 00-.62 3.64v26.32a9.47 9.47 0 00.62 3.6 5.09 5.09 0 001.78 2.28 5.43 5.43 0 005.61 0 4.83 4.83 0 001.78-2.28 9.48 9.48 0 00.61-3.6V61h6.84v2.21a16.53 16.53 0 01-1.41 7.14 10.09 10.09 0 01-4.11 4.54 12.77 12.77 0 01-6.52 1.57 12.64 12.64 0 01-6.48-1.6zM10.65 37.75H0l18.13-14.18v8.62zM18.13 52L0 37.75h10.65l7.48 5.52zM81.87 48L100 62.22H89.35l-7.48-5.56zm7.48 14.18H100L81.87 76.43v-8.69z"/>
</svg>
